<svg xmlns="http://www.w3.org/2000/svg" viewBox="0 0 601.17 683.94"><defs><style>.cls-1{fill:#ffc200;stroke:#000;stroke-miterlimit:10;stroke-width:20px;}</style></defs><g id="Layer_2" data-name="Layer 2"><g id="Layer_7" data-name="Layer 7"><path class="cls-1" d="M227.11,287c11.7-8.11,26.37-5.33,34-4,64.75,11.27,228.62,23.58,299-43,7.23-6.84,29.65-27.49,31-57,2.92-63.88-96.84-113.51-132-131,0,0-184.34-91.71-388-4-14.52,6.25-30.1,14.22-43,30C15,94-5.06,130,28.11,265c22.23,90.45,51.82,156,111,287,2.86,6.32,11.43,25.18,25,49,8,14.12,16.51,29,24,38,24.71,29.76,68.92,32.28,99,34,34.18,1.95,119.06,6.79,194-55,52.78-43.52,71.35-95.71,81-123,13.09-37,12.36-52.78,7-64-12-25.07-48-37.18-78-34-80.12,8.49-91.17,131.09-155,134-56.46,2.57-99.44-91-106-106C210.07,379.14,198,307.17,227.11,287Zm-102-114c-5.6-18.42,6.46-37,11-44,38-58.6,149-59.69,223-24,27.74,13.37,77.48,45,72,71-5.58,26.49-65.65,33.51-104,38C262.74,221.5,139.87,221.49,125.11,173Z"/></g></g></svg>