<svg xmlns="http://www.w3.org/2000/svg" viewBox="0 0 533.92 742.36"><defs><style>.cls-1{fill:#0095ac;stroke:#000;stroke-miterlimit:10;stroke-width:20px;}</style></defs><g id="Layer_2" data-name="Layer 2"><g id="Layer_5" data-name="Layer 5"><path class="cls-1" d="M325.61,315c10.2-10.9,10.13-33.93,10-80-.18-58.9-9.15-91.13-2-150,3.32-27.38,8.14-44.85,22-58,1.33-1.26,18.88-17.52,39-17,39.16,1,62,85,67,111,21.78,113.28-24.25,124.23,8,282,1.11,5.46,48.79,158.67,54,263,.71,14.27,1.85,45-17,59-18.16,13.44-48.08,6.24-67-4-41.5-22.45-56.08-73.54-76-147-17.14-63.19-11.64-74.19-29-97-28.54-37.47-87.93-66.24-131-46-50.71,23.83-55.74,104.77-56,110-1.89,38,9.49,102.29,1,129-5.47,17.21-17.12,25.92-17.12,25.92a41.2,41.2,0,0,1-8.88,5.08c-17.91,7.31-42.41-.4-56-15-11.34-12.18-13.37-27.34-14-32-22.21-164.37-18.23-331.56-40-496-2.26-17.07-10.1-72,20-115,5.86-8.37,19.63-27.46,41-30,29.55-3.5,54,26.45,56,29,47.35,59.76-16.71,150,20,223C184.26,334,289.35,353.75,325.61,315Z"/></g></g></svg>