<svg xmlns="http://www.w3.org/2000/svg" viewBox="0 0 931.57 562.61"><defs><style>.cls-1{fill:#e4e1d9;}.cls-2{fill-rule:evenodd;}</style></defs><g id="Layer_2" data-name="Layer 2"><g id="Layer_1-2" data-name="Layer 1"><polygon class="cls-1" points="1.4 373.53 648 53.28 865.9 513.28 1.4 373.53"/><path class="cls-2" d="M140.23,365.15c0-.72,1.81-1.35,3-2C143.46,364.27,141.57,365.2,140.23,365.15Z" transform="translate(-1.9)"/><path class="cls-2" d="M143.39,357.59,141,358.76l-.65-1.31c1-.39,1.36-.8,1.37-1.22C142.87,355.83,142.93,357,143.39,357.59Z" transform="translate(-1.9)"/><path class="cls-2" d="M263.07,213.23c-.05-.71,1.8-1.34,2.95-2C266.3,212.35,264.4,213.28,263.07,213.23Z" transform="translate(-1.9)"/><path class="cls-2" d="M238.24,222.8c1.32.1,5.11-1.58,4.53-2.79-1.88,0-5.38,2.27-8.13,3.48-1.57.78-1.59-.69-3.6.7.61.88-2.7,1.58-3.74,2.4a59.92,59.92,0,0,0-14.67,6.17c-3.21,1.85-7.15,4.55-7.84,6.07,2.74-.75,1.81-.85,4.75-2.36,5.5,1.17,15.21-5.45,20.65-8,4.62-2.2,10.41-3.63,14.24-7.06C242.75,221.3,238.79,224.51,238.24,222.8Zm-25.32,12.54c-.5-1.44,3.57-2.69,5.9-4C218.78,232.76,215.26,235.33,212.92,235.34Z" transform="translate(-1.9)"/><path class="cls-2" d="M240.32,219.05c-.53,1.44-5.84,3.48-6,1.86a10.79,10.79,0,0,0,4.75-2.35C239.22,219.13,239.66,219.25,240.32,219.05Z" transform="translate(-1.9)"/><path class="cls-2" d="M148.51,360c7.37-3.23,9.37-6.71,16.75-9.93,1.87-.63.72-1.4,1.94-2.06a259.08,259.08,0,0,1,28.85-15.37c2.12-1.76,5-3.49,7.26-5.24,1.33-1.25,3.41-1.12,5-1.91,1.35-.69,2.71-2.36,4.31-3.23s3.6-1.12,5-1.91c3.7-2.15,7.36-5.13,11.22-7.2,2.22-1.18,5.09-2,7.33-3.08,2.61-1.31,4.67-3.19,7.48-4.8,5.54-3.17,10.93-5.91,16.19-9.11,4.38-2.66,8.07-5,12.8-8,3.11-2,8.14-4.15,13.23-7.11,1.66-1,2.47-2,4.32-3.22,6.81-4.46,16-7.32,21.29-12.73,14.72-8.16,29.05-15.85,44.89-22.78a24,24,0,0,1,6.69-4.4c2.47-2.07,1.21,1.25,3,.14,3.12-1,7.68-4.09,8.78-2.17-2.2,2.47-9,4.73-9.2,7.29-11.34,6.91-23,12.47-34.17,18.55-4.33,2.35-8,5.08-12,7.59-2.17,1.35-4.75,2.59-6.91,4-1.88,1.2-3.28,2.58-5.1,3.62s-2.2.59-3.38,1.12c-2.94,1.33-10.19,5.86-12.23,7.15-5.16,3.26-9.07,5.81-15,9.59-3.19,2.06-6.39,4.48-9.63,6.41s-6.68,3.19-10.29,5.1c-8.8,4.63-18.11,10.05-28.63,15.81-1.45.8-2.83,1.9-4.53,2.79-1.33.69-3.65,1.18-5,1.91-2.28,1.27-4.38,3.16-6.69,4.41-5.28,2.86-11.07,5.88-16.4,8.67-1.12.58-3,.89-4.17,1.52-1.94,1.05-7.22,4.54-10.65,6.36-1.38.74-2.69.76-4.17,1.52-2.57,1.34-4.27,2.69-7.91,3.92a25.67,25.67,0,0,0-2.37,1.18c-.63.25-.56,1-1.37,1.22-.44.13-2.61-.37-4.61.65C154.49,358.73,150.48,362.29,148.51,360Z" transform="translate(-1.9)"/><path class="cls-2" d="M502.92,170.24a45.88,45.88,0,0,0,8.92-3.87,12.88,12.88,0,0,1,3.38-1.13,215.06,215.06,0,0,0,22.16-11c8.22-5,17-8.81,25.9-13.38,4.36-2.24,10.05-5.24,13.23-7.1,1.42-.82,2.63-.74,3.39-1.13,3.48-1.76,7.76-4.2,11.65-6.32,4.6-2.49,9.21-4.75,11.65-6.31a.76.76,0,0,1,1,0c4.74-2.19,5.8-3.8,9.06-5.58a10.58,10.58,0,0,0,2.59-.73l.51-.27a.82.82,0,0,0,.16-.14,1.59,1.59,0,0,0,.18-.27,1.24,1.24,0,0,1,.3-.44c1.56-.91,3.18-1.26,4.62-2.28,1.15-.82,2.46-2.64,3.77-3.51.83-.55,1,.05,1.24-.07s.38-.73.35-.71c2-1,4.19-2.11,5.52-2.75l.64,1.36c.19.4.46,0,.63.2a14.2,14.2,0,0,1,2.25,3.6c.83,1.55,2.39,3.27,3.54,5.18.33.55.49,1.22.83,1.77s.76,1.24,1.15,1.93l.6,1.07.31.56.16.28.07.15.18.35,6.48,13.08c4.43,9,9,18.17,13.2,25.89,8.54,15.78,17,30.8,25,45.83,4.58,8.64,8.9,16.07,12.67,23.32,5.12,9.89,9.49,20.18,14.8,30.12,1.71,3.19,3.69,6.07,5.42,9.15,6.2,11,10.19,18.33,14.56,27.31,6.86,14.09,13.6,28.38,20.42,43.09,12.66,27.35,26.26,55,38.87,83.21l3.41,7.62q.92,2.13,1.84,4.28c1.12,2.62,2.25,5.2,3.39,7.76,2.28,5.11,4.63,10.07,7.26,15.05,3.59,6.81,7.26,14.76,11.17,22.87-3.51-.55-7-1.06-10.37-1.49-3.8-.49-7.76-1.13-11.66-1.72s-7.75-1.16-11.54-1.54c-2.57-.25-4.85.07-7.54-.23s-5.72-.7-8.62-1.13l-4.35-.67-7.85-1.27c-10.5-1.71-20.93-3.42-31.16-4.83-6.59-.91-13.48-1.37-20.2-2.28s-13.28-2.64-20-3.72c-7.09-1.15-14-1.84-21-2.9-9.68-1.48-20.37-2.69-27.18-3.41-5.87-.62-10.43-1.66-14.82-2.39-9-1.5-18.34-2.13-27.18-3.4-2.74-.4-5.16-1.45-7.77-1.76s-5.21,0-8-.3a15.46,15.46,0,0,0-3.41-1c-7.46-.84-14.93-2.33-21.87-3-3.23-.34-5.57-.5-8.79-.93-3.42-.46-7.35-1.21-7.85-1.27-3.32-.42-5.93-.08-8.87-.44a22.74,22.74,0,0,1-3.41-1c-1.32-.26-3.15,0-4.44-.22-9.32-1.33-19.85-3.2-29.72-4.31-2.41-.27-4.71.05-7.13-.17-3-.27-5.78-1.08-8.72-1.4-5.51-.61-10.56-1-15.84-1.57-10.78-1.22-21.07-2.32-31.62-3.63-20.66-2.57-41.11-5.34-61.41-7.45-17.72-1.08-35.48-3.2-52.86-5.08-2.51-.28-4.56-.9-7-1.13-1.67-.16-3.55.28-5.39.12-4.61-.4-9.4-1.41-14-1.77-4.13-.33-8.41-.4-12.44-.53-1.95-.06-4.37-.49-6.18-.5-.31,0-1.45.68-1.9.68-1.36,0-3-.64-4.36-.7-16.14-.76-33.4-2.37-50.31-4.18-17.07-1.82-33.92-3.21-49.37-4.51-7.7.05-16.51-1-24.79-1.53-2.92-.2-6.09-.14-8.88-.45-4.41-.49-9.35-1.68-13.95-2.25s-8.86-.59-13.23-1.15c-28.38-3.62-57.17-11-81.15-12.62-3.9-.27-3.32-2.14-5.79-2.92-2.46,1.05-6.05-1.62-7.93-.79-3.27.33-4.78,2-7.59,2.73,1.39,1.88-1.26,2.58,1.19,3.66-1,2,.7,3.09.1,5,5.33,1.26,6.71,3.94,12.6,5,3.56-2.29,6.17.67,8.72,1.41,1.64.47,3.19.47,5.23.84,7.24,1.34,14.62,1.4,22,2.56s14.66,2.56,21.72,4c1.27.26,2.66,1.38,4.2,1.67,1.74.31,3.51,0,5.31.36,3.83.8,7.52,2.11,11.18,2.8,1.26.23,1.91-.17,2.69-.06,1.2.16,1.86.81,2.54.9,4.94.66,9.2,1.14,12.28,1.49,9.32,1.05,21.53,2.08,30,2.86,1.55.15,2.68,1,3.41,1.05,1.83.19,3.74-.25,5.39-.12,2.6.2,5.28.94,7.84,1.27,8.42,1.09,17,2.08,25.52,2.64,4.26.28,8.19.15,12.44.52,1.71.15,2.79.94,4.28,1.19,1.11.19,3.4.12,4.43.22,3.16.33,3.32-.18,5.31.37a6.88,6.88,0,0,0,2.7-.06c6,.49,10.62,1.16,14.18.8,4.25-.43,10.39.39,15.92,1.09,2.31-.09,4.73-.4,7.21-.32,1.4.05,2.94.59,4.36.71,1.69.14,2.26-.49,3.64-.4,2.8.16,5.88.74,8.8.92s6,.16,8.87.45a114.74,114.74,0,0,1,12.21,2c1.13.23,3.05,0,4.44.22,2.89.47,5.4,1.41,8.63,1.89,3,.45,5.95.42,8.8.93,5.57,1,10.84,2.92,16.48,3.16,3.28,1.9,8,1.72,12.13,2.45s8.36,1.77,12.13,2.46c3.28.6,6.82,1.51,10.38,2.17,4.36.81,9.89,1,13.79,3.22,2.11-.7,4,1.07,6.26,0a127.18,127.18,0,0,0,13,2.59,4.62,4.62,0,0,1,2.69-.06c.57.2.52,1.05,1.59,1.25a4.81,4.81,0,0,1,.73-.36,3,3,0,0,1,1.17-.32,2.74,2.74,0,0,1,2.46,1.38c-5-.15-9.89-.63-15.06-.94-1.47-.09-2.18.57-2.77.54-1.1-.07-1.55-.94-3.41-1.05-2.69-.16-5.27-.12-8-.3-21.3-1.44-43.63-3.61-63.62-4.84L294,440.32c-2.33-.15-5,0-7.13-.16-3.39-.29-6.25-1.31-9.59-1.55-1.53-.11-3,.26-4.51.26s-3.5-.27-5.31-.37c-8.55-.44-20.89-2-32.57-3.28-1.42.34-1.37-.13-2.61-.42a29.85,29.85,0,0,0-3.49-.57c-9.83-1.42-17.91-2.52-28.85-4.17-13.12-2-26.71-4.3-39.3-5.85-11.85-1.47-24.12-2.26-36.06-3.85-1.66-.23-1.84-.8-3.41-1.05s-3.09-.07-4.43-.22c-22.91-2.56-45.37-6.89-63.56-10.77-2.7-.57-5.71-1.13-8.64-1.89-1.31-.34-1.81-1.06-3.33-1.53s-3.86-.43-5.23-.84c-5.15-1.57-9.73-4.17-15.31-4.95-.69,1.26-3.59.8-5.54,1.08-.81,0-3.22,1.32-1.18,1.79-.92.72-2.33,1.07-3,2-3,1.24.32,4.11-1,6.27-2.86,1.82-2.41,3.85-2.76,6-.31,1.95-1.16,1.88-.54,3.38.19.46-.12,1.05-.16,1,1,2,3.29,3.23,5.48,4.85s4.12,3.6,7.3,4.64c8.44.49,17.18,2.66,23.46,4.29,1.83.48,4.34,1,6,1.47,4.11,1.16,6.23,2.64,10.23,3.14a19.16,19.16,0,0,0,4.44.22c.34,0,.6-.79,1-.82a62.53,62.53,0,0,1,7.13.16c10,.38,19.44,3.43,29,3.2,2.7,2.06,9.29,2.72,13.64,4.19,3.42.68,3-1.64,6.42-1a39.94,39.94,0,0,0,8.08-.18c10.67,2.44,22.88,2.35,34.15,4.54,5.16,1,12.72,1.61,18.31,3,5.16,1.24,9.47,3.59,14.51,4.32,2.88.42,5.83-.7,7.2-.32,2.37.66,6.12.17,8.88.44,1.28.13,2.91,1,4.28,1.19,4.81.6,10.35,1.3,15.77,2,10.68,1.5,21.38,1.73,30.51,4.94,6.26,2.2,11,.75,16.8,1.23,3.63.3,8,1,12.28,1.49,9.05,1.06,16.67,2.69,24.41,3.94,4,.65,7.81.61,11.41,1.35,4,.83,8,2.56,12,3.42,1.74.39,4.22,1.25,6,1.47,1.57.2,3.6-.37,5.39-.12,2.2.32,3.78,1.16,6,1.47s4.68.29,7.06.65c3.91.58,8,1.86,12.12,2.45,2.11.31,3.8-.3,5.39-.12,2.29.27,4.71,1.16,6.9,1.61,4,.82,8,2,12,2.94,2.25.5,4.85.66,7,1.13s4,1.59,5.95,1.95,4.67.32,7.05.64,5.54,1,7.84,1.27c5.16.66,10.22.78,15,1.43,2.07.28,4,1.1,6,1.47,2.39.43,4.8.3,7.05.65,5.21.8,10.16,2,14.82,2.39,3.63.3,7.78-.53,9.91-.38a9.51,9.51,0,0,1,2.15.56l.88.34.38.15c5.71.33,10.07-.08,15.13.46a4.62,4.62,0,0,1,1.66.77c.89.17,1.1-.3,1.83-.2,4.31.61,7.45,1.31,8.71,1.41,1.83.13,3.42.17,5.31.36,20.86,2.16,42,4.82,62.21,8.08,12.89,2.08,30.13,4.37,40.18,6a8.13,8.13,0,0,0,2.53.9c2.72.32,3-.44,3.65-.4,1.43.09,3.58,1.13,5.15,1.33,2.06.26,4,.2,5.31.36,1.11.14,1.11.72,2.54.91s2.52,0,4.43.22c4.42.49,9.15.46,14.11,1.29a62.49,62.49,0,0,1,10.3,2.66c3.06,0,5.65-.64,8.8.92,2.82-.15,6-.34,8.79.93,6.51,1.6,14.14,1.81,21,2.9,9.95,1.57,20.07,3.5,30.51,4.93l11.23,1.5,6,.8,3,.41,4.64.68c13.26,2,25.48,3.92,33.48,5.54,1.49.3,1.66-.19,2.84,0,12,1.55,23.79,3.54,34.9,5.55s21.55,4,30.5,5.52l6.71.84,6.1.73a26.3,26.3,0,0,0,3.51,1.07,175.94,175.94,0,0,0,23.85,2.86c3.27,2,3,1,6.58,1.56l24,3.48c-15.7-32.09-30-62.13-44.32-93.31-6.42-14-13.08-28.1-20-42.73l-10.58-22.46c-1.25-2.69-2.51-5.42-3.8-8.19-1.07-2.35-2.15-4.74-3.26-7.17-1.8-4-3.84-6.85-5-9.37-1.28-2.84-1.93-6.4-3.27-9.2-1.66-3.46-4.13-6.61-5.8-9.95s-2.93-7-4.47-10.59c-1.69-3.88-3.44-8.34-5.23-12.18-1.66-3.55-3.74-6.64-5.36-10.16-7.35-16-13.64-32.23-21.8-48.31,1.22-1.12-1.14-3.5-1.82-5-3-6.45-6.15-13.62-9-20.16-3.36-2.62-4.56-7.58-6.56-11.56C767,210,748.75,169.72,734.84,140.13c-1.41-3-4-7.4-5-9.37-1.5-3.14-1.26-5-2.52-7.6-1.93-3.89-4.93-7.5-4.86-11.38-5.41-8.35-7.26-17.57-12.22-23.52-.08-.27-.14-.49-.24-.8l-.49-1.28-1-2.56c-.7-1.71-1.45-3.41-2.22-5.12-1.54-3.41-3.2-6.81-4.9-10.21-3.41-6.79-7-13.52-10.3-20.5-3.16-6.64-6.2-14.37-9.4-21-4.05-8.36-8.88-18-13.3-26.8-9.3,4.86-17.72,9.26-23,11.87-2.82,1.39-7.19,2.67-10.72,4.76-1.77,1.05-2.48,2.28-4.13,3.14a27.82,27.82,0,0,0-4,1.44c-2.17,1-4.82,2.93-5.37,3.21-4.13,2.06-7.34,3-10.78,4.79-7,3.52-13.13,7.38-19.85,10.92L580.4,45.42c-2.22,1.18-4.41,2.34-6.5,3.5C565,53.87,557.37,58.27,550,62.38c-5.18,2.91-12.28,6.09-15,7.45a.94.94,0,0,0-.57.83c-8.64,5-15.66,8.66-22.52,12.24a10.44,10.44,0,0,0-2.59.74c-1.47.76-1.57,1.25-2.95,2-4.74,2.62-8.36,4.21-12.66,6.27-2,1-3.95,3.08-5.76,2.3-2.36,1.15-3.37,3.28-5.32,3.18-17.55,9.68-40.05,19.47-57.33,29.49-1.43.83-2.19,1.32-3.74,2.4-3.48,2.43-7.32,3.68-11.08,5.49-5.16,2.48-9.21,4.75-13.45,6.66-1.54.69-3.33,1.1-5,1.91-2.84,1.42-8,4.94-9.06,5.58-.77.45-1.17,0-1.8.35-1.61.86-3.25,1.57-4.75,2.35-1.19.62-5.21,2.58-5.54,2.75-8.39,4.3-17,8.89-25.89,13.37-12.32,6.18-26.37,13.29-37.2,18.42-4,1.87-9.22,3.81-12.87,5.83-3,1.68-5.33,4.05-8.06,5.63-2.06,1.19-4.62,1.74-6.55,2.69-1.48.74-1.57,1.25-2.95,2s-2.16.56-3.16,1.57a97.42,97.42,0,0,1-14.82,7.88c.66,1.8,4.29-.74,6.19-1.43a12.33,12.33,0,0,1,2.81-.3c1.55-.66.92-2.36,2.73-2.44.37,1.47,3-.37,4.61-.65,3.86-1.11,1.79-2.48,5.11-3.62,10.16-2.8,20.15-7.9,30.14-12.75.07,0-.15-.49.58-.83,9.83-4.54,22.38-10.48,32.66-15.63l29.28-14.5c2.46-1.23,4.58-2.17,7.12-3.53,8.17-4.37,16.44-7.84,24.53-12.15,2.61-1.39,5.31-3,7.7-4.36,2.23-1.26,4-2.05,6.33-3.13,2.71-1.27,5.26-2.11,8.13-3.48,1.19-.57,2.49-1.84,3.74-2.4,1.9-.86,2.6-.68,4.17-1.52,4.77-2.55,8.92-5.68,13.81-7.93,3.43-1.59,7.23-2.68,10.72-4.22,1.55-.69,2-1.52,3.74-2.4,1.28-.65,3-.89,4.17-1.52,2.86-1.5,5.69-3.29,8.49-4.75,5.31-2.78,11-6.2,16.41-8.67,3.11-1.44,6.8-2.32,9.92-3.83,7.11-3.43,13.42-9.38,21.37-10.58,5.67-3.25,10.57-5.46,15.61-8.28,11.68-6.52,26-15.06,36.9-21,2.33-1.27,4.1-2.38,5.64-3.36l2.16-1.38,1-.63,1.59-.88c6.1-3.28,12.83-6,18.54-9.18a16.86,16.86,0,0,1,1-1.61c3.41-2.46,11-5.88,13.72-7.34,4.53-2.4,8.95-4.42,13-6.22s7.68-3.4,10.79-5c2.24-1.16,5.5-3.68,7.8-5,3.82-2.11,6.94-3.31,10.11-5l3.76-2c3.79,7.41,7.89,15.49,11.94,24s8,17.28,11.58,26c.67,2.07,3.31,8.18,3.84,9.25,3.26,6.56,7.83,14.14,9.69,17a7.3,7.3,0,0,1,.78,2.8l6.25,12.34c1.92,3.85,3.76,7.62,5.27,10.83,1,2.23,1.88,5,3,7.39l3,6.39c1.37,2.88,3,6,4.16,8.78,1.37,3.28,2.18,6.89,3.65,10s3.62,5.65,5,8.36a8.93,8.93,0,0,1,.69,2.6,14.92,14.92,0,0,0,2,3c1.55,3.46,5.34,12.39,6.74,15.37a14.51,14.51,0,0,1,1.95,3c1.5,3.72,2.38,7.92,4,11.8,2.29,5.6,5.2,11.83,6.74,15.38.64,1.47,2,3.09,2.71,4.57,1.5,3.32,2.65,6.55,4.1,9.79.65,1.47,2.13,3.27,2.71,4.58.72,1.63.3,2.77,1,4.41,5.61,12.94,13.33,27.39,16.57,36.12a39.1,39.1,0,0,0,1.89,4c8.76,20.7,18.07,41.77,26.91,62.5,2.72,6.39,4.61,13.08,7.37,19,1.53,3.29,4.85,8.2,5.79,10,.77,1.41.78,2.82,1.45,4.2,7.79,16,15,30.92,22.31,45.95,3.74,7.71,7.2,15.31,10.61,22.83s6.75,15,10.37,22.59l22.79,48.08c7.79,16.35,15.62,32.66,23.2,48l-4.67-.67c-6.92-1-14.21-2.25-18.31-3-3-.52-6.4-1.08-9.15-1.48-18.52-2.7-37.5-5.64-56.54-8.67l-57.23-9.23-7.57-1.2-6.18-.95-10.09-1.47c-6.72-1-13.43-1.93-20-3-35.93-5.7-69.06-11.52-103-16.14-3.23-.44-6.36-.49-9.67-1.07-2.89-.51-6.22-2-9.43-2.51-1.17-.19-2.81-.09-4.44-.23-5.2-.42-9-1.08-14.9-1.91-7.2-1-14.32-2.35-21.79-3.53-4.14-.65-12.13-1.16-15.85-1.56-1.07-.12-1.15-.72-2.54-.91-4.45-.63-12.53-1.18-16.72-1.71-1.1-.14-1.12-.71-2.53-.91-11.5-1.58-25.62-3.13-36-4.33-2.13-.25-3.12-1.07-5.15-1.33-3.28-.41-6.27-.2-9.75-.58-1-.11-1.32-.68-1.66-.77-1.27-.32-1.91.17-2.69.06-10.37-1.45-18.48-1.56-27.26-2.92-3.81-.59-8.43-1.65-12.13-2.45-4.11-.89-7.93-2.09-12.05-2.94-13.54-2.8-31-5.24-40.89-7.11-7-1.32-15.73-2-23.46-4.28,7.49-.39,15.85,1.18,23.85,1.87,8.57.74,17,1.38,25.67,1.68,1.84.06,3.59-.18,5.38-.12,7.28.23,13.26.75,19.5,1.17,4.49.3,8.82.84,13.23,1.15,4.9.34,8.83.34,11.49.86,13.56.89,27.87,2.17,42.31,3.87,14.74,1.74,29.82,3,44.85,4.78.89.1.95.64,1.66.76a18.27,18.27,0,0,1,2.7-.06c5.31.45,11.31,1,16.72,1.71,14.65,1.93,30,4.83,45.48,6.37,1.58.15,2.86-.36,4.52-.26s4.34.79,6.1,1a195.68,195.68,0,0,1,20,3.24c4.87,1.05,14.22,2.57,17.36,3.31,1.08.25,3.45,1,4.28,1.18,2.63.45,9.11.65,11.49.87.89.08,1,.66,1.66.76,5.19.74,10.65,1.07,15.77,2.06,6.59,1.27,11.86,4,18.31,3,1.7,1.12,3.74,1.48,6,2a18.61,18.61,0,0,0,3.56.08c1.66.23,1.85.78,3.41,1.05,5.19.88,11.23,1.51,16.56,2.67,4.45,1,8.55,2.65,12.85,3.57,2.18.46,4.54.81,6.92,1.15l3.55.52,1.85.29,2.24.39c7.39,1.34,12.6,2.95,17.08,3.75,2.29.4,5.81.48,7.92.78,6.53.95,12.69,2.31,18.59,3.66s11.52,2.68,16.61,3.52c2.85.47,4.72.16,7.74.76a29.94,29.94,0,0,0,3.12,1.49c4.72,1.26,4.46.13,7.73.76,1.67.31,2.64.88,5.14,1.32,9.84,1.75,19.44,3,28.76,5.14,3.56.81,6,1.87,9.69,2.56,4.35.81,6.77.62,11.13,1.3,1.76.28,3.76.69,5.84,1.13-.86-2.12-1.7-4.28-2.74-6.51-5.26-11.34-10.86-23.05-16-33.91S874,478,870.41,469.7c-.84-2-2-4.32-3.12-6.59-2.92-5.9-6.71-12.76-8.92-16.55-1-1.68-1.18-2.6-2.06-4.34.13.24.28-.49,0-1.09-.46-1.11-1.13-1.28-1.57-2.17-.6-1.21-1.25-2.78-2.06-4.34-2.12-4.12-3.22-6.94-5.14-10.85s-3.85-7.79-5.76-11.67l-1.44-2.89-1.11-2.16-2.17-4.22-8.68-16.7C822.65,375,817,364,811.81,352.84c-2.45-5.29-4.63-10.95-7.12-16.17-2.6-5.46-5.89-10.23-8.44-15.54s-7.34-17.72-10.46-24.36c-1.49-3.17-3.2-5.52-4.6-8.57-5.14-11.21-9.32-22.37-14.61-33.14-5.86-11.9-10.83-22.34-15.88-33.52-3.71-8.19-7.55-16-11.34-23.94-1.07-2.22-4.45-10.53-5.23-12.18-2-4.2-9.27-17.28-10.72-20.33-.2-.42,0-1.24.07-1-2.05-4-4.6-7.57-6.56-11.55-1.78-3.61-2.94-7.46-4.85-11.38-3.66-7.51-7.36-15.21-11.2-22.89-1.92-3.84-3.88-7.68-5.89-11.48-1-1.9-2-3.79-3-5.68L688.57,95c-3.46-6.6-7.08-14.58-11-23.07s-8.14-17.46-12.49-25.4c-2.64-4.81-5.44-9-7.91-14.13a43.49,43.49,0,0,1-7.81,3.18,31.28,31.28,0,0,1-7.71,4.74c-2.72,1.25-5.64,2.39-8.68,3.93-6.28,3.18-13.73,7.89-20.11,11-7.16,3.54-13.8,6-20.21,9.46l-.6.34-.53.31-1,.64-2,1.32c-1.33.89-2.67,1.78-4.16,2.61a9.25,9.25,0,0,1-2.59.74c-1.49.62-2.22,1.66-3,2-2.37,1.1-4.89,1.9-7.34,3.08-2.28,1.11-3.93,2.56-6.11,3.58-1.26.58-4,.85-4.39,1.08-.26.14-.4.73-1.37,1.22C553.45,84.73,547,88.9,541,91.94c-2.23,1.14-5.14,1.87-7.34,3.09-1.6.89-2.83,2.29-4.31,3.22-8.81,5.54-19,9-27.84,15.43-4.48.95-8.74,3.75-12.88,5.83-.56.28-4.26,2.06-6.33,3.14-8.85,4.58-14.51,7-20.57,10.19-12.38,6.41-20.81,10.27-30.65,15.72-2.94,1.63-5,2.45-6.33,3.13-7.48,3.88-16.31,8.15-21.15,11-2,1.2-3.1,2.31-5.32,3.18-3.57,1.91-3.59,2.36-7.12,3.52-3.88,3.71-9.07,6.85-15,9.59-8.58,4-25.5,13.55-37.19,18.43-4,1.68-8.87,2.3-12.74,4.12-2.77,1.31-5.75,3.73-8.27,5.19-3.31,1.91-6.37,3.65-9.28,5.14-4.65,2.39-9.27,4-13.67,6.23-3.5,1.8-6.85,4.31-10.65,6.36-4.39,2.37-9.25,4.44-14.24,7.06-.81,1.4-3,1-4.17,1.52-1.82.86-3.38,2.22-5.32,3.18-4,2-7.74,3.73-11.87,5.88-8.17,4.24-16.53,8.69-25.11,13l-22.95,11.36c-8.25,4.1-16.9,8.17-23.3,12.64-2.44,1.26-2.94-.26-6,1.86C158,290,139,297.94,128,304.67c-2.19,1.35-4.32,2.57-6.9,4-1.27.68-3.14.94-4.18,1.52-2.78,1.58-4.73,3.37-7.47,4.8-2.5,1.3-5.67,2.27-8.13,3.48-1.52.75-2.34,1.61-3.74,2.4-1.71.95-3.48,1.14-5,1.91-3,1.55-5.28,3.73-8.27,5.19-2.75,1.35-6.14,1.95-9.14,3.43s-6.18,3.45-9.28,5.15c-7.32,4-13.66,7.44-18.55,10.28-3.21,1.85-6,3.91-9.07,5.57-2.76,1.5-5.84,2.26-8.92,3.88a109.63,109.63,0,0,0-9.64,6.41c-2.76,1.9-8.77,4.44-7.4,6.94-.17,1.65,3,.34,4.83-.21.94-.28,2.77-1,4.17-1.52a160.15,160.15,0,0,0,20-9.36c3.25-1.82,5.9-3.85,9.06-5.58,13.57-7.45,29.45-13.81,41.15-20.38,5-2.79,9.24-7.37,14-7.5,2.77-2.9,10.86-6.84,17-9.49a61.57,61.57,0,0,1,8.35-3.05c17.3-10.35,37.63-19.24,56.54-29.09,18.41-9.59,36.46-18.26,52.81-26.7,26.88-13.89,51.23-25.58,77.55-38.41,4.29-2.1,8.54-4.76,13.23-7.1s9.4-4.79,14.25-7.06c1.47.25,1.91-1.43,3.74-2.39s4.37-1.64,6.54-2.7c4.23-2.06,8.25-4.57,11.3-5.05,4.57-3.5,12.85-6.83,17.55-10.33,1.63-.58-.68,1.89,2.81-.3.72-1.11,3.22-2.13,5.32-3.18,2.36.05,6.23-2.21,8.7-4.31,12.78-5.66,25.39-12.5,38-18.81,33.17-16.65,74.67-37.93,108.41-53.7,3.82-1.79,7.5-3.62,11.08-5.49l31.39-16.34L606,73.43q8.07-4.08,16.2-8.08c2.34-1.15,4.28-2.07,6.5-3.22l20.52-10.71a7.72,7.72,0,0,1,1.52-.6,22.21,22.21,0,0,0,1,3c4.89,9.94,9.75,20.36,14.72,29.93,2.24,4.31,4.75,8.1,7.09,12.68a9.14,9.14,0,0,0,.77,2.77l4.87,9.2,4.59,8.9c3,5.89,6,11.69,9,17.37,17.66,33.44,34.59,71.76,48.52,100.13,1.26,2.56,1.74,4.82,3,7.39,2.17,4.57,4.68,8.6,6.87,13.36,1.67,3.64,3.77,8.87,4.47,10.58a17.81,17.81,0,0,0,2,3c3.19,7.14,6.43,14.36,9.38,21,.7,1.54,3.42,5.19,2.15,6.8-4.75-11.06-10.57-21.26-15.25-29.91-3.56-6.56-8.55-17.83-11.72-24.74-.93-2-2.43-4-3.47-6.17-4.6-9.55-9-19.33-13.23-27.94-1.82-3.71-3.7-8.26-6.18-10.75-6.18-14.13-14.6-30-22.87-44.86-1.23-2.2-3.39-6.84-4.6-8.57-.18-.25-1.43-.78-1.64-1.18-.91-1.69-1.3-3.89-2.2-5.79-3-6.26-5.23-10.78-7.57-16-1.72-3.83-4.28-7.55-4.85-11.39-2.65-4.78-6.13-10.35-9.37-16.36-1-1.89-3.14-5.48-3.26-5.73-.33-.71-.06-1.36-.36-1.9-1.5-2.77-3.15-4.69-4.61-7.46-2.93-5.54-6.26-13.76-9.5-20.6a75.76,75.76,0,0,0-10.6,6.12c-2.91,2.12-5,4.29-5.72,6.6-1.18,3.63.2,5.21,2,5.54.53.1,2.59-1.16,4.06-1.47,1.21-.24,2.58-.56,3,.18l1.72-1c2.16,4,4.55,7.89,7.08,12.14s5.19,8.8,7.77,13.69c.55,1,1.54,2.12,2.15,3.41s.65,2.65,1.35,4c.33.65.71,1.28,1.11,1.91l.61.94.74,1.19c1,1.65,2,3.3,2.89,5,.62,1.23,1.19,3.6,1.83,5,.92,2,2.14,3.44,3.08,5.38.83,1.68,1.1,3.47,1.83,5,2.63,5.48,5.61,9.4,6.37,14.58,3.36,4.82,6.35,10.85,8.88,15.33,1.53,2.71,1.14,2.62,2.27,4.79,4,7.58,8.57,14.94,12.29,22.52,1.46,3,2.26,6.08,3.72,9,1.15,2.3,3,4.43,4.28,6.77,10.67,18.9,18.38,38.6,28.48,57.84,2,3.86,4.53,7.67,6.56,11.55a8.18,8.18,0,0,0,.69,2.6l5.35,10.17C765,311.23,778,335.84,790.3,361.08c5.61,11.51,12.1,24.6,16.63,35.12,1.64,3.8,4.09,8.82,6.45,13.92,1.18,2.55,2.34,5.13,3.36,7.58l.74,1.81.61,1.61c.37,1,.7,2,1,2.95.21.71.9.71,1.15,1.27,5,11,10.67,22.83,13.06,28.72,1.72,4.25,3.9,8.91,6.22,13.82s4.76,10.05,6.91,15.05c3.11,7.18,5.36,13.49,8.29,20.49-4.26-.86-8.53-1.64-12.8-2.25-4.86-.7-7.77-1.26-10.5-1.7-5.26-.84-10.5-1.21-16-2.1-2.13-.34-4.49-1.21-6.43-1.53L783,491.55l-12.91-2.08L756,487.29c-20.14-3.05-39.67-5.82-58.56-8.48-2.24-.32-4-1.21-6-1.47s-3.88.25-6.26,0c-1.27-.15-1.79-.78-2.54-.91-3.23-.53-14-1.54-15.85-1.57-.84,0-1-.67-1.66-.76a23.82,23.82,0,0,0-2.7.06c-1.66-.21-1.83-.83-3.4-1.05-4.21-.59-8.25-.55-12.37-1-1.27-.14-1.79-.78-2.53-.9-1.08-.18-1.33.24-2.7.06-4.44-.58-8.48-.88-13.15-1.63-2.09-.34-4.63-1.28-6.9-1.61-4.72-.7-9.29-.7-14.1-1.29-8.35-1-17.84-2.39-28-4-5.66-.91-11-2.31-14.75-2.88-1.92-.3-4.4.25-6.26,0-2.27-.34-4.71-1.24-6.89-1.61-1.14-.2-1.28.4-2.69.06-.42-.1-1.63-1.23-2.46-1.39-2.27-.42-4.83-.36-7.06-.64-8.82-1.13-17.74-1.32-26.46-2.3-4.75-.54-9.17-1.24-14-1.77a19.56,19.56,0,0,0-2.69.06c-1.6-.15-2.61-.94-3.41-1.05-1.39-.19-5.69-.92-6.1-1-17.52-2.62-34.28-4.82-51.28-9.29,6,0,11.85,1.09,17.59,1.86,12.86,1.72,25.32,2.92,36.93,4,2.77.25,6,.74,8.79.92s5.34-.39,8.08-.18c1.1.09,3,.28,4.74.45l3.19.34a7.54,7.54,0,0,0,2.53.91c1.28.13,3.22-.38,4.52-.27.88.09,1,.63,1.66.77,1,.2,1.37-.24,2.7-.06,7.12,1,14.48,3.11,21.87,3,10.47,4,24.16,4.91,38.28,6.68,3.81.48,8.43.86,12.28,1.5,1.57.25,2.55,1.33,4.2,1.66s4.4.22,6.18.51c7.18,1.15,14.38,2,21.88,3,13,1.8,22.77,3.8,33.2,4.87,10,1,19.61,1.9,29,3.2,1.46.21,2.74,1,4.28,1.19,1.86.21,2.8,0,4.44.22,3.14.46,6.63,1.63,9.51,2,1.7.24,2-.52,3.64-.41s2.87,1,4.29,1.19,2,.24,3.48.56c8,1.75,12.55.42,18.62,1s12.63,2,19.18,3.1l11.52,1.8a53.91,53.91,0,0,1,8.54,1.94,40.57,40.57,0,0,0,10.36,2.06c3.35.29,6.51.34,9.74.7A124.94,124.94,0,0,1,813,492c1.51.33,2.24-.14,3.58.09,2.59.42,4.93.86,7.4,1.19s4.71.19,8.08,1.31c2.73.37,2-1,4.46-.76a11.47,11.47,0,0,0,6.57.84,26.45,26.45,0,0,1-1.4-2.31c-.46-.92,0-1.29-.58-2.37-1.77-3.5-4.73-8-6-10.44-.48-.91-.13-1.51-.64-2.48l-7.19-13.76c-2.41-4.6-4.73-9.12-6.8-13.5-3-6.42-5.53-12.56-8.7-18.38a3.67,3.67,0,0,0-.34-1.86c-.53-.92-1.27-2-2-3-.35-.52-.71-1-1-1.53l-.47-.73-.55-1c-1.92-3.61-2.94-7.48-5.36-10.16-2.18-4.36-3.34-8.71-5.22-12.18-.82-1.5-1.65-2.08-2.34-3.78s-.72-3.2-1.38-5.21a41.59,41.59,0,0,0-4.54-9.58c-6.23-10.08-12.95-29.48-18.84-40.91-.8-1.55-1.19-2.51-1.89-4-1.66-3.47-3.84-6.92-5.36-10.16-3.39-7.29-5.7-14.6-8.94-21.17-1.93-3.91-4.7-7.88-6.56-11.56-2.87-5.7-5-11.09-7.11-16.17-1.34-1.46-2.59-4.23-4-5-1-1.85-.05-2.42-1-4.41l-.78-.53a6.54,6.54,0,0,1-.86-.65,26.72,26.72,0,0,1-1.51-3.19c-2.22-4.55-4-10-6.43-13.57-10.75-15.87-19.43-37.77-29.62-53.39-4.8-9.08-12.28-24.47-18.53-32.27-2.82-8.64-8.38-16.66-13-25.11-2.6-4.8-4.82-10-7.62-15-.5-.89-2.67-3.34-2.77-3.57-.18-.4.33-.68-.32-1.81-1.33-2.26-3.19-4.75-3.72-5.57a53.63,53.63,0,0,1-2.79-5.88c-1-2.34-1.69-5.06-2.85-7.17A22,22,0,0,0,640,96.63a10.36,10.36,0,0,1-3.11-5.78h0c-2.05,2.2-3.13,2.36-4.32,2.12a26.16,26.16,0,0,1-4.79,4c-1.49,1-2.93,1.76-4.29,2.69-1.54,1-2.8,2.3-4.23,3.19s-2,.41-2.84,1.4a13.15,13.15,0,0,1-3.23,2.08L609,108.37c-1.3.65-2.37,1.19-3,1.52-1.33.74-2.41,1.66-2.95,2s-1.13,0-1,0c-4.88,2.71-13,7.38-14.39,8.76-2,2-5.71,2.89-7.91,3.92a120.46,120.46,0,0,0-22.08,13.11,9.54,9.54,0,0,1-4.18,1.52c-2.26.41-1.62,3-2.94,2-3.2,2.38-4.65,2.3-8.71,4.31.25,1-.87,1.67-2.06,2.12a13.48,13.48,0,0,1-1.67.5l-.8.17c-1.19.46-1.5,1.31-2.16,1.62-3.42,1.56-7,2.17-9.93,3.82a33.06,33.06,0,0,0-5.68,4.45c-5.39,3.82-14,8.49-22.08,13.12C497.87,173.37,501.25,170.81,502.92,170.24ZM843.45,512.81l31.09,5.53-34.12-75.42c6.71,13.06,13.27,26.47,19.42,39.54s11.9,25.8,17.09,37.67c-9.14-1.73-18.07-3.49-26.66-5.23C848.87,514.62,845.52,514.93,843.45,512.81ZM771.72,302.46c-.16-3.29,3,3.6,0,0ZM767,262.7l-.76-1.6.88-.41.76,1.59ZM12.45,422l1.75.28-.16,1L12.3,423Z" transform="translate(-1.9)"/><path class="cls-2" d="M17.75,402.36c-1.74-1,3.11-3.79,4.31-3.22.9-1.8,4-2.74,5.68-4.45,1-.95,3.7-2.37,5.9-4,1.15-.86,1.79-1.87,2.73-2.45,4.75-2.94,10.93-5.68,16.18-9.1,1.63-1.06,3.1-2,4.53-2.79.46-.26,2.57-1.08,4.75-2.35,4.66-2.72,8.38-5.15,12.23-7.15,7.52-3.91,15.54-7.33,23.17-10.93,1.27-.6,2.4-1.75,3.73-2.4,3.9-1.89,10.25-4.25,16.05-7.4,1.17-.63,2.35-2.29,3.95-2,9.2-8.6,29.11-18.89,43.38-25.84,3-2.73,10.09-7,16.54-10.38,1.52-.8,3.51-2.36,4.53-2.79,1.17-.49,2.92,1.47,2.59-.73,5.17-3.5,11.77-6,18-9.46,4-2.23,7.92-5.4,12-7.58,2.26-1.2,5-1.94,7.34-3.09,3.14-1.57,5.6-3.59,9.06-5.58,0,0,2.87-1.27,4-2A124.84,124.84,0,0,1,250,270.42c2.26-1.09,4.68-1.7,6.55-2.69,2.09-1.1,3.94-2.93,5.9-4,2.48-1.38,4.7-2.21,7.12-3.53,6.43-3.53,12.49-7.32,20.93-11.46,4.44-2.18,9.19-4.27,14.25-7.06,6.06-3.33,12.09-6,18.2-9,2.7-1.35,5.54-4.51,8.7-4.31,7.88-4.88,16.73-9.13,25.68-13.81,3.07-1.61,6-3.43,9.28-5.14.65-.34,1.5-.1,2.59-.74,6.06-3.58,17-9.68,23.66-13.9,5.72-3.63,11-6.83,17.63-8.19,6-4,15.33-8.26,20.94-11.46,2.25-1.28,3.72-2.53,6.33-3.13,2.41-1.75,5-3.48,7.26-5.23,12.07-5.08,23.28-11.24,34.6-17.69,4.93-2.8,10.31-6.28,15.39-8.71,3.42-1.63,7.21-2.66,10.72-4.22,6.79-3,13.41-6.92,20.36-10.63,4.58-2.44,8.88-5,14-7.49,1.86-.89,5.08-1.13,7.34-3.09.21-.19.2-1.16.35-1.27,3-2.11,8.79-4.68,12.45-6.71,5.32-2.94,10.14-6,15.39-8.71,4.55-2.34,9.31-3.66,15-7.45,1.32-.88,2.6-2.27,4.31-3.23,2.26-1.27,5.46-1.46,7.1-3.51a29.28,29.28,0,0,0,6.47-1.62c2.21-.69,4.28-1.19,5.47-.48a6.83,6.83,0,0,1,.7,4,3.61,3.61,0,0,0,.76,3c-2.24,2.42-4.92,4.56-8.13,4.57l-.37.33a4.51,4.51,0,0,1-.45.35c-.38.27-.77.53-1.16.79q-1.18.77-2.43,1.47c-1.65.93-3.36,1.79-5.11,2.61-3.49,1.65-7.09,3.16-10.52,4.92-8.14,4.19-14.67,8-24.1,13-1.18.63-1.21,1.19-2.16,1.62-.67.3-1-.09-1.79.34-8.16,4.41-19.43,11-30.22,16.6-3,1.57-6.28,3.23-9.49,4.7-2.41,1.11-5.75,2.27-8.13,3.49L482.37,158.6c-.64.33-1-.1-1.79.35a20.32,20.32,0,0,1-3.75,2.4c-2.9,1.4-6.61,2.89-11.86,5.88a26.74,26.74,0,0,1-3,2,9.2,9.2,0,0,1-1.68.56l-.66.14-.26,0c-2.19,1.18-3.89,3-5.89,4-2.22,1.13-4.41,1.55-6.55,2.7-2.86,1.54-5.36,3.63-8.27,5.19-3.09,1.65-6.55,2.7-9.71,4.26-1,.51-2.19,1-3.17,1.57.16-.09,0,.91-.57.83-1.26-.19-13.4,6.51-18.78,9.84-1.14.71-2.08,2-3.52,2.84s-3.79,1.84-5.54,2.74c-.17.09-.55.91-1.36,1.23-1.93.75-6.56,3.62-10.07,5.53-6.45,3.5-13.14,6.85-19.57,10.24-2.89,1.51-5.7,2.87-8.7,4.31-2.24,1.06-5.06,1.93-7.34,3.09-3.87,2-7.49,4.7-11.44,6.75-4.18,2.17-8.6,3.64-12.88,5.83-7.06,3.62-14,7.87-20.93,11.46a17.52,17.52,0,0,0-3.38,1.13c-1.13.65-1.24,1.17-2.16,1.62-4.09,2-8.91,3.33-13.1,5.39-5.66,2.79-11.1,5.84-17.41,8.62-1.79.8-3.82,2.85-5.75,2.31-6,4.28-12.49,7.7-20.72,11.89-3.86,2-16.15,9.27-22.51,12.25-1.67.78-3.3,1.59-4.75,2.35-5.35,2.8-9.86,6.55-15,7.44-3.1,2.77-13.25,8.62-17.41,8.63-7,5.55-17.51,9.12-25,15.12C149.72,333,139.7,339,128,344.47c-7.94,3.71-16.19,6.4-21.72,11.85-3.79,2-4.23,2.62-9.28,5.15-2.63,1.92-4.72,4.52-8.27,5.18-4.2,3.81-11.34,6-18.56,10.28-2.07,1.22-4.25,3.12-6.69,4.41s-5.44,2.15-8.13,3.48c-2.21,1.09-4.21,2.68-6.11,3.57-6,2.84-11.56,3.67-14,7.49C30.74,396.12,23.15,400.82,17.75,402.36Z" transform="translate(-1.9)"/><path class="cls-2" d="M56.3,309.1c1.94-.79,2.23.79,4.61-.65,2-.9,3.84-1.82,4.53-2.79,3.24,0,6.18-2.59,8.13-3.48,4.09-1.85,8.94-4.11,12.88-5.83,3.31-1.45,5.4-2.71,7.91-3.92s5.92-1.92,8.35-3c2.74-1.27,5.07-3.06,7.7-4.36,7.27-3.6,18.23-8.27,28.7-13.67.44-.22.72-.8-.22-.44-2.46,1.05-5.91,3.53-6.76,2.26,2.07-1.66,5.66-2.19,7.34-3.09,1.31-.71,2.21-2.33,2.95-2,2.31-1,4.34-2.08,3.3-3.27-2.46,2-5.08,1.6-7.55,2.65-1.67.7-3.86,2.64-6.12,3.57-3.22,1.34-6.5,3.68-9.13,3.44,1.51-1.07,5.46-2,5.32-3.18-5.41,1.63-15.09,7-20.8,9.75-4.32,2-6.9,2.75-6.9,4-6.74,1-16.62,7.81-22.81,9.66-1.22.66-.06,1.42-1.94,2.05-1.81,1.11-.55-2.21-3-.14-7.93,4.71-19.31,8.65-27.48,14.16-3.28.75-8.65,1.74-10.51,4.65,1.59-.54,4.48-2.95,4.39-1.08-5.36,2.44-11.32,5.9-17.19,9.06,2.31,2.18,10.67-4.39,15.69-6.13,1.71-.48,2.47.43,4,.18C45.75,314.25,53.66,312.88,56.3,309.1ZM121,276.52l-1.58.78-.43-.87,1.58-.78ZM57.59,305.73c0-.89,5.62-3.68,6.33-3.13C64.7,304.7,58.8,305.56,57.59,305.73Z" transform="translate(-1.9)"/></g></g></svg>