<svg xmlns="http://www.w3.org/2000/svg" viewBox="0 0 730.58 748.67"><defs><style>.cls-1{fill:#f07c12;stroke:#000;stroke-miterlimit:10;stroke-width:20px;}</style></defs><g id="Layer_2" data-name="Layer 2"><g id="Layer_5" data-name="Layer 5"><path class="cls-1" d="M560,141.06a219.11,219.11,0,0,0-44-59C406-22,173.21-13.06,82,107.06c-3.34,4.39-64.59,87.44-33,162,28.86,68.12,122.42,98.94,190,91,46.34-5.45,62.2-12.28,126-18,42.11-3.78,72.18,5.53,102,32,39,34.57,48.78,80.34,17,119-13,15.86-35.55,30-102,34-159.45,9.66-214.7-60.37-292-25-48.66,22.26-86.81,77.47-79,121,10.35,57.75,99.46,82.89,153,98,151.88,42.84,279.06-.44,410-45,24.2-8.24,60.23-21.82,93-55,29.39-29.78,47.63-66.72,52-90,18.94-101-138.16-213.71-266-249-27.66-7.64-53.44-11.43-105-19-133.17-19.57-176-15.35-183-40-5.18-18.26,1.91-40.4,22-52,57.75-33.37,131-11.57,180,3,45.2,13.44,71.56,28.85,128,34,40.92,3.73,57.59-1.6,66-13C574.61,176.62,562.79,147.5,560,141.06Z"/></g></g></svg>