<svg xmlns="http://www.w3.org/2000/svg" viewBox="0 0 778.56 705.45"><defs><style>.cls-1{fill:#90bc1a;stroke:#000;stroke-miterlimit:10;stroke-width:20px;}</style></defs><g id="Layer_2" data-name="Layer 2"><g id="Layer_5" data-name="Layer 5"><path class="cls-1" d="M23.23,101c-43.32,40.32,32.09,179,50,204a53.72,53.72,0,0,0,8,9c18.75,16.8,45,15.85,62,15,84.69-4.23,95.86-6.07,119-4,29.58,2.66,47.65,4.53,64,18,14.16,11.69,21.07,27.16,31,73,7.07,32.68,13.09,68.82,22,139,2.72,21.46,6.53,52.59,22,90,6.32,15.31,9.49,23,15,29,31.88,34.94,110.1,24.39,159-12,9.44-7,14.17-10.54,17-15,37.71-59.37-82.65-232.28-133-277-5.29-4.69-23.2-19.87-26-43-1.49-12.26,1.42-25.52,7-34,18.36-27.88,73.18-15.28,126-15,15.62.09,164.46.88,199-69,0,0,26.31-53.24-69-192a15.59,15.59,0,0,0-6.15-5.7c-14.65-7-39.24,15.4-58.85,26.7-93.55,67.87-171,83.79-224,86-30.28,1.27-150.76,2.14-309-27C67.27,91.34,40,85.44,23.23,101Z"/></g></g></svg>